<?xml version="1.0" encoding="utf-8"?>
<!-- Generator: Adobe Illustrator 19.1.0, SVG Export Plug-In . SVG Version: 6.00 Build 0)  -->
<!DOCTYPE svg PUBLIC "-//W3C//DTD SVG 1.1//EN" "http://www.w3.org/Graphics/SVG/1.1/DTD/svg11.dtd">
<svg version="1.1" id="Layer_1" xmlns="http://www.w3.org/2000/svg" xmlns:xlink="http://www.w3.org/1999/xlink" x="0px" y="0px"
	 viewBox="-361 156.4 300 393" style="enable-background:new -361 156.4 300 393;" xml:space="preserve">
<style type="text/css">
	.st0{fill:none;stroke:#103853;stroke-width:6;stroke-miterlimit:10;}
	.st1{fill:#FFFFFF;stroke:#103853;stroke-width:6;stroke-miterlimit:10;}
	.st2{fill:#103853;}
	.st3{fill:#103853;stroke:#B03635;stroke-width:6;stroke-miterlimit:10;}
	.st4{display:none;fill:#B03635;enable-background:new    ;}
	.st5{font-family:'CaviarDreams';}
	.st6{font-size:72.5503px;}
	.st7{fill:#E2A252;}
</style>
<g id="Background">
</g>
<g id="Objects">
	<g>
		<g>
			<g>
				<path class="st0" d="M-146.3,297.9c1.3,5.2,1.9,10.6,1.9,16.1c0,37-29.8,67-66.5,67s-66.5-30-66.5-67c0-9,1.8-17.3,2.8-21.7"/>
				<path class="st0" d="M-154.8,262.1c7,19,9,39,9,39s-16-16-65-3c-38.9,10.3-64.3-4.3-64.3-4.3c2-18,10.3-34.7,10.3-34.7
					s26-10,58-5"/>
				<g>
					<path class="st1" d="M-211.2,349.6c-0.9-8.6-12.5-16.6-24-6.5c-8.8,7.7-26.6,18.5-35.2,5c0,0-0.3,16.7,18.4,21.3
						c10.8,2.7,22.3,1.2,30.3-3.6C-215.7,362.1-210.4,357.7-211.2,349.6z"/>
					<path class="st1" d="M-210.4,349.6c0.9-8.6,12.5-16.6,24-6.5c8.8,7.7,26.6,18.5,35.2,5c0,0,0.3,16.7-18.4,21.3
						c-10.8,2.7-22.3,1.2-30.3-3.6C-205.9,362.1-211.2,357.7-210.4,349.6z"/>
				</g>
				<path class="st0" d="M-273.9,276.7c-21.3-4.3-37.3-23.1-37.3-45.7c0-25.7,20.9-46.6,46.7-46.6c16.1,0,30.3,8.2,38.7,20.6"/>
				<path class="st0" d="M-147.1,276.7c21.2-4.3,37.2-23.1,37.2-45.7c0-25.8-20.9-46.6-46.6-46.6c-16.1,0-30.3,8.2-38.7,20.6"/>
				<path class="st0" d="M-249.7,185.8c7.1-14.3,21.8-24.1,38.8-24.1c17.9,0,33.3,10.9,39.9,26.5"/>
				<path class="st0" d="M-237.9,374.3c-35.2,10.8-63.2,42.8-66.3,79.6H-118c-3.1-36.8-31.1-68.8-65.7-79.4"/>
				<polyline class="st0" points="-221,398.4 -243,398.4 -243,455.4 				"/>
				<g>
					<circle class="st2" cx="-223.3" cy="419.1" r="3.6"/>
					<circle class="st2" cx="-198.3" cy="419.1" r="3.6"/>
				</g>
				<g>
					<circle class="st2" cx="-223.3" cy="438.1" r="3.6"/>
					<circle class="st2" cx="-198.3" cy="438.1" r="3.6"/>
				</g>
			</g>
			<g>
				<line class="st3" x1="-361" y1="454.4" x2="-61" y2="454.4"/>
				<line class="st3" x1="-361" y1="545.4" x2="-61" y2="545.4"/>
				<text transform="matrix(1 0 0 1 -311.2 529.5791)" class="st4 st5 st6">MENU</text>
			</g>
			<g>
				<path class="st7" d="M-238.2,480.6c0,0-0.7,9.3,8.8,19.5c4.6,5,9.5,6.5,10,6.3l21.3,21.4l3.5-3.5L-238.2,480.6z"/>
				<path class="st7" d="M-187.5,490.3l-8.3,8.3c-2,2-4.3,3.2-6.1,3.6l13.2-13.2l-3.5-3.5l-13.2,13.2c0.4-1.8,1.6-4.1,3.6-6.2
					l8.3-8.3l-3.5-3.5l-8.3,8.3c-4.5,4.5-6.2,10.2-4.5,14.1l-21.5,21.4l3.5,3.5l21.3-21.3c1,0.4,2.1,0.6,3.3,0.6
					c3.5,0,7.5-1.8,10.9-5.2l8.3-8.3L-187.5,490.3z"/>
			</g>
		</g>
	</g>
</g>
</svg>
